<?xml version="1.0" encoding="UTF-8"?>
<svg width="39px" height="30px" viewBox="0 0 39 30" version="1.1" xmlns="http://www.w3.org/2000/svg" xmlns:xlink="http://www.w3.org/1999/xlink">
    <!-- Generator: sketchtool 52.5 (67469) - http://www.bohemiancoding.com/sketch -->
    <title>B5615D92-85A2-4894-9EE0-FB154F0089B6</title>
    <desc>Created with sketchtool.</desc>
    <defs>
        <polygon id="path-1" points="0.00035726293 0.229814489 35.081051 0.229814489 35.081051 22.4430303 0.00035726293 22.4430303"></polygon>
        <polygon id="path-3" points="0.273365928 0.18049712 7.65890947 0.18049712 7.65890947 7.83143654 0.273365928 7.83143654"></polygon>
    </defs>
    <g id="Home-Page---mobile" stroke="none" stroke-width="1" fill="none" fill-rule="evenodd">
        <g id="Mobile---home-page" transform="translate(-134.000000, -1425.000000)">
            <g id="Group-2" transform="translate(134.000000, 1425.000000)">
                <g id="Group-11-Copy">
                    <g id="Group-3" transform="translate(0.000000, 6.954178)">
                        <mask id="mask-2" fill="white">
                            <use xlink:href="#path-1"></use>
                        </mask>
                        <g id="Clip-2"></g>
                        <path d="M0.0298314547,14.7069177 C1.1757523,16.4404174 2.58694088,18.1003039 4.24285456,19.3921247 C5.0708114,20.0411772 5.97022083,20.5995597 6.93751021,20.998148 C7.90569275,21.3787818 8.94800735,21.6121893 9.97692459,21.8034039 C12.045477,22.1696741 14.1756572,22.1975035 16.2370643,21.8114834 C18.302044,21.4452131 20.2768149,20.6731729 22.1211848,19.6749069 C23.9610888,18.6559933 25.6839893,17.4243198 27.1889594,15.9529548 C28.7064337,14.4941578 30.0015118,12.8136237 31.1813727,11.0603742 C32.3272935,9.28647706 33.4955433,7.4892392 34.2984917,5.55285455 C34.4833753,5.06628965 34.657541,4.56805438 34.7120236,4.06622822 C34.7361388,3.81755945 34.7334593,3.56889067 34.6727247,3.34266493 C34.6102036,3.11105285 34.4780164,2.94587215 34.2904533,2.73311222 C34.004643,2.35158071 33.5125133,2.09034384 33.0811183,1.80307305 C32.6345396,1.5256772 32.1772431,1.259054 31.7172671,1.00320345 L31.7154807,1.00230573 L31.694045,0.988839913 C31.1894111,0.654887623 30.496321,0.531002096 29.8523546,0.54895652 C29.5308179,0.563320059 29.1815934,0.587558532 28.8931036,0.683614702 C28.5974685,0.788648083 28.310765,0.947544737 28.0508562,1.14953201 C27.0058622,1.96017426 26.1913027,3.08232577 25.4812426,4.21435222 L25.4857084,4.20447729 L21.838947,11.6286317 C20.4018569,14.0183656 18.256493,15.9574434 15.7226057,17.0769017 C14.4552154,17.6307957 13.0922573,17.9539753 11.7132224,18.0437475 C10.3359738,18.1101788 8.95425945,18.0222022 7.59933979,17.7834083 C4.9055773,17.2932525 2.24664794,16.2662595 0.0298314547,14.7069177 M0.00035726293,14.673702 C2.33239104,16.203419 4.9118294,17.2115599 7.61720294,17.6756818 C8.96676366,17.9028052 10.3395465,17.9791115 11.705184,17.9019075 C13.0663558,17.8031582 14.4087712,17.4736945 15.6529394,16.9180051 C18.1385962,15.8030353 20.2482338,13.849594 21.6326277,11.5209052 L25.233838,4.08059176 L25.239197,4.07071683 C25.9635476,2.90457698 26.766496,1.77255053 27.8686521,0.904454119 C28.1428514,0.688103308 28.4554565,0.509456787 28.7966426,0.386468981 C29.1547987,0.268867502 29.4906258,0.250913078 29.843423,0.231163212 C30.5427652,0.216799672 31.257291,0.312855842 31.8958985,0.727603041 L31.8735696,0.713239501 C32.3424772,0.969987768 32.8024532,1.23481552 33.2588566,1.51400682 C33.7018626,1.81025482 34.1895265,2.0463555 34.5592937,2.51137509 C34.7236346,2.69181705 34.9370992,2.95305392 35.0103381,3.24301787 C35.0907223,3.53298182 35.0916154,3.82384349 35.066607,4.10303479 C35.0076586,4.66321283 34.8290272,5.18119796 34.6414641,5.68751273 C33.8242252,7.69302191 32.6693728,9.49115749 31.5270245,11.2919862 C30.3507364,13.0712697 29.0476198,14.7895081 27.4970987,16.2734412 C25.9635476,17.7735334 24.2049208,19.0312408 22.3355425,20.0681088 C18.6048244,22.1795491 14.1158156,22.9551802 9.922442,22.1032428 C8.87476845,21.8922783 7.84138543,21.6472004 6.83926291,21.2387372 C5.85053775,20.8150128 4.94041043,20.2314941 4.10977412,19.5599986 C2.4610057,18.1864851 1.08554341,16.554428 0.00035726293,14.673702" id="Fill-1" fill="#231F20" mask="url(#mask-2)"></path>
                    </g>
                    <g id="Group-6" transform="translate(31.315082, 0.000000)">
                        <mask id="mask-4" fill="white">
                            <use xlink:href="#path-3"></use>
                        </mask>
                        <g id="Clip-5"></g>
                        <path d="M0.278477309,7.79399392 C0.927471036,6.94648206 1.57646476,6.11271364 2.13287477,5.22213902 C2.7101615,4.35721881 3.15946485,3.40342438 3.69499814,2.46520585 C3.95822636,1.99792904 4.22417764,1.53156846 4.54277456,1.08994606 C4.70252686,0.870051093 4.87044831,0.652904812 5.086477,0.465077859 C5.29524421,0.261675013 5.62291796,0.160889819 5.89794608,0.182879316 C6.47250975,0.19753898 6.99624315,0.54937093 7.274902,1.02306134 C7.55265316,1.50224913 7.64886762,2.05198655 7.65885213,2.58523185 C7.65975982,2.59805906 7.6497753,2.6090538 7.63706773,2.6090538 C7.62526784,2.6090538 7.61528332,2.59989151 7.61437564,2.58798054 C7.57443757,2.06023261 7.4455465,1.529736 7.16053387,1.09819212 C6.87552124,0.671229392 6.38991055,0.395444452 5.89613071,0.411936575 C5.37965878,0.374371184 5.08012321,0.836150619 4.78421838,1.26036466 C4.49829806,1.69557346 4.25413119,2.16651518 4.01450274,2.63837313 C3.5370612,3.57109429 3.16400327,4.60276819 2.50774807,5.48143183 C1.86510813,6.34910073 1.1498535,7.15813097 0.310246232,7.82697817 C0.300261713,7.834308 0.285738777,7.83247554 0.278477309,7.82239702 C0.27121584,7.81415096 0.272123524,7.80223998 0.278477309,7.79399392" id="Fill-4" fill="#231F20" mask="url(#mask-4)"></path>
                    </g>
                    <path d="M34.1334393,9.14397215 C34.1420802,8.35836206 34.2659324,7.58981094 34.3888245,6.82125982 C34.5251579,6.05450438 34.7536604,5.3048079 34.9716018,4.55511142 C35.1876231,3.8045171 35.4190059,3.05751415 35.6887924,2.32038743 C35.8280061,1.95317083 35.9768208,1.58774991 36.1534782,1.23310307 C36.3464571,0.900902239 36.4962319,0.481610915 36.9196336,0.317306178 C36.9321148,0.313714817 36.9455561,0.318204018 36.9503566,0.329875939 C36.954197,0.33975218 36.9503566,0.352321941 36.9388354,0.356811142 L36.9282744,0.362198182 C36.5759197,0.52560508 36.4405464,0.948487764 36.2859712,1.28607564 C36.141957,1.64521168 36.0248255,2.0151218 35.9172949,2.38772544 C35.6964732,3.12934135 35.5130951,3.88262919 35.3450786,4.63861055 C35.1780221,5.39548975 35.0560901,6.16044951 34.8592708,6.91104383 C34.6509303,7.65984247 34.4608316,8.41223247 34.180484,9.15115487 C34.1766436,9.16282679 34.1622422,9.17000951 34.149761,9.16552031 C34.14016,9.16282679 34.1334393,9.15295055 34.1334393,9.14397215" id="Fill-7" fill="#231F20"></path>
                    <path d="M25.0532412,17.038473 C25.5787473,15.4844696 26.2083053,13.9679673 26.9698956,12.512747 C27.3563742,11.7892528 27.7542199,11.059356 28.2937162,10.4282422 C28.8393331,9.83920266 29.5143592,9.19985696 30.3528955,9.16692929 C30.3651369,9.16601463 30.3747551,9.17607586 30.3756295,9.18888107 C30.3756295,9.19894231 30.36776,9.20808888 30.3590162,9.21174751 C29.6219087,9.4971207 29.1051465,10.1044534 28.6259829,10.7245913 C28.1581863,11.3602783 27.6930129,12.0096852 27.2724332,12.6984225 C26.4557565,14.0896167 25.734388,15.5539836 25.093463,17.0549368 C25.089091,17.0668274 25.0759752,17.0723153 25.0654826,17.067742 C25.0541156,17.0622541 25.0497437,17.0494489 25.0532412,17.038473" id="Fill-9" fill="#231F20"></path>
                </g>
            </g>
        </g>
    </g>
</svg>