<svg xmlns="http://www.w3.org/2000/svg" width="31" height="31" viewBox="0 0 31 31">
    <g fill="#000" fill-rule="evenodd">
        <path fill-rule="nonzero"
              d="M11.27 0C5.054 0 0 5.047 0 11.255 0 17.463 5.054 22.51 11.27 22.51c2.967 0 5.655-1.16 7.66-3.004L30.32 30.88c.08.08.2.12.28.12.08 0 .2-.04.28-.12.16-.16.16-.401 0-.56L19.491 18.903c1.885-2.003 3.008-4.686 3.008-7.65C22.54 5.046 17.486 0 11.27 0zm7.499 18.544c-.04 0-.08.04-.12.08-.041.04-.041.08-.08.12a10.38 10.38 0 0 1-7.299 2.963C5.494 21.707.802 17.022.802 11.255.802 5.487 5.494.8 11.27.8c5.774 0 10.468 4.685 10.468 10.454a10.366 10.366 0 0 1-2.969 7.288z"/>
        <path d="M10.412 3c-.248 0-.412.164-.412.412 0 .247.164.411.412.411 4.814 0 8.765 3.91 8.765 8.765 0 .248.164.412.411.412.248 0 .412-.164.412-.412C19.998 7.321 15.678 3 10.412 3z"/>
    </g>
</svg>
